# xmcd
#
# Track frame offsets: 
#        150
#        15053
#        31724
#        44558
#        58174
#        71413
#        91362
#        102560
#        126570
#        140270
#        151838
#        170144
#        187366
#        202164
#
# Disc length: 2893 seconds
#
# Revision: 0
# Processed by: cddbd v1.5.2PL0 Copyright (c) Steve Scherf et al.
# Submitted via: ExactAudioCopy v0.99pb3
#
DISCID=cb0b4b0e
DTITLE=Ian Anderson's Country Blues Band - Stereo Death Breakdown
DYEAR=2009
DGENRE=Blues
TTITLE0=Get In That Swing
TTITLE1=Little Boy Blues
TTITLE2=(My Babe Ain't Nothing But A Doggone) Crazy Fool Mumble
TTITLE3=New Lonesome Day
TTITLE4=Short Haired Woman Blues
TTITLE5=Hot Times
TTITLE6=Stereo Death Breakdown
TTITLE7=When I Get To Thinking
TTITLE8=Way Up On Your Tree
TTITLE9=Break 'Em On Down
TTITLE10=That's Alright
TTITLE11=Baby Bye You Bye
TTITLE12=Put It In A Flame
TTITLE13=Stop And Listen
EXTD=
EXTT0=
EXTT1=
EXTT2=
EXTT3=
EXTT4=
EXTT5=
EXTT6=
EXTT7=
EXTT8=
EXTT9=
EXTT10=
EXTT11=
EXTT12=
EXTT13=
PLAYORDER=
